<svg id="Layer_1" data-name="Layer 1" xmlns="http://www.w3.org/2000/svg" viewBox="0 0 80 80"><defs><style>.cls-1{fill:#3bb59a;}.cls-2{fill:#fff;}</style></defs><title>feature</title><rect class="cls-1" x="1" y="1.25" width="78" height="78" rx="8" ry="8"/><path id="_Compound_Path_" data-name="&lt;Compound Path&gt;" class="cls-2" d="M40,25.32c-6.47,0-12,5.82-12,13.35v12A4.29,4.29,0,0,0,32,55H48a4.29,4.29,0,0,0,4-4.32v-12C52,31.21,46.47,25.32,40,25.32ZM44,45l-2.68,4H38.81L36,45l2-4h4ZM32,39c0-6,3.74-9.35,8-9.35S48,33,48,39H32Z"/></svg>