<svg id="Layer_1" data-name="Layer 1" xmlns="http://www.w3.org/2000/svg" viewBox="0 0 80 80"><defs><style>.cls-1{fill:#3bb59a;}.cls-2{fill:#fff;}</style></defs><title>feature</title><rect class="cls-1" x="0.85" y="1.25" width="78" height="78" rx="8" ry="8"/><path id="_Path_" data-name="&lt;Path&gt;" class="cls-2" d="M34.69,40.22l-0.46,0c-4.24,0-7.78-2-8.94-4.69a4.75,4.75,0,0,0-.44,1.88c0,3.44,3.79,6.23,8.61,6.51A12.06,12.06,0,0,1,34.69,40.22Z"/><path id="_Path_2" data-name="&lt;Path&gt;" class="cls-2" d="M33.29,45.87a0.54,0.54,0,0,1,0-.05c-3.82-.27-6.93-2.13-8-4.63a4.75,4.75,0,0,0-.44,1.88c0,3.54,4,6.41,9,6.54A12.11,12.11,0,0,1,33.29,45.87Z"/><path id="_Path_3" data-name="&lt;Path&gt;" class="cls-2" d="M34.66,51.47l-0.44,0c-4.24,0-7.78-2-8.94-4.69a4.75,4.75,0,0,0-.44,1.88c0,3.62,4.2,6.56,9.38,6.56a12.9,12.9,0,0,0,3.05-.39A12.19,12.19,0,0,1,34.66,51.47Z"/><path id="_Compound_Path_" data-name="&lt;Compound Path&gt;" class="cls-2" d="M34.23,25.25c-5.18,0-9.37,2.94-9.37,6.56s4.2,6.56,9.38,6.56,9.38-2.94,9.38-6.56S39.4,25.25,34.23,25.25ZM36,30.87V34H34V31H32V29h4v1.87Z"/><path id="_Compound_Path_2" data-name="&lt;Compound Path&gt;" class="cls-2" d="M45.48,36.5a9.38,9.38,0,1,0,9.38,9.38A9.37,9.37,0,0,0,45.48,36.5ZM47,49H46V46H44V44h2V42h1v7Z"/></svg>