<svg id="Layer_1" data-name="Layer 1" xmlns="http://www.w3.org/2000/svg" viewBox="0 0 80 80"><defs><style>.cls-1{fill:#3bb59a;}.cls-2{fill:#fff;}</style></defs><title>feature</title><rect class="cls-1" x="1" y="1.25" width="78" height="78" rx="8" ry="8"/><path id="_Compound_Path_" data-name="&lt;Compound Path&gt;" class="cls-2" d="M34.38,25.25H32.5a1.87,1.87,0,0,0-1.87,1.88V45.87H49.38V51.5H47.5V47.75H25V51.5a3.75,3.75,0,0,0,3.75,3.75H49.38a1.87,1.87,0,0,0,1.88-1.87V29h1.88v3.75H55V27.12a1.87,1.87,0,0,0-1.87-1.87H34.38ZM43,40H33V38H43v2Zm3-4H33V34H46v2Zm0-3H33V31H46v2Z"/></svg>