<svg id="Layer_1" data-name="Layer 1" xmlns="http://www.w3.org/2000/svg" viewBox="0 0 700 40"><defs><style>.cls-1{fill:#00a079;}.cls-2{fill:none;stroke:#bdd2d9;stroke-miterlimit:10;}</style></defs><title>footer</title><path class="cls-1" d="M365.79,10.42l0-.05,0,0a16,16,0,0,0-13-7.92,0.79,0.79,0,0,0-.81.79,0.8,0.8,0,0,0,.55.75,17.52,17.52,0,0,1,7.71,5.54,3.61,3.61,0,0,0,3.54,6.11,19.47,19.47,0,0,1,1.11,4.5,15.78,15.78,0,0,1-.17,5,0.79,0.79,0,0,0,.37.85h0a0.79,0.79,0,0,0,1.09-.31A16,16,0,0,0,365.79,10.42Z"/><path class="cls-1" d="M336.42,15.84A3.61,3.61,0,0,0,340,9.69a19.21,19.21,0,0,1,3.27-3.13,18.7,18.7,0,0,1,4.3-2.33,0.75,0.75,0,0,0,.47-0.7V3.42a0.75,0.75,0,0,0-.77-0.75,15.48,15.48,0,0,0-7.05,2.12,15.9,15.9,0,0,0-6.06,21.1,0.75,0.75,0,0,0,1.39-.52A17.64,17.64,0,0,1,336.42,15.84Z"/><path class="cls-1" d="M363.11,29.45a0.8,0.8,0,0,0-.93.1,17.52,17.52,0,0,1-8.66,3.9,3.61,3.61,0,0,0-7.07,0A19.47,19.47,0,0,1,342,32.17a15.78,15.78,0,0,1-4.2-2.62,0.79,0.79,0,0,0-.93-0.1h0a0.79,0.79,0,0,0-.28,1.1,16,16,0,0,0,13.26,7.28h0.21a16,16,0,0,0,13.33-7.29A0.79,0.79,0,0,0,363.11,29.45Z"/><path class="cls-1" d="M351.7,21.58a1.52,1.52,0,0,0-.38-1.08,3.43,3.43,0,0,0-1.28-.74,15.2,15.2,0,0,1-1.56-.68,5,5,0,0,1-1.13-.77,3.1,3.1,0,0,1-.73-1,3.44,3.44,0,0,1-.26-1.4,3.12,3.12,0,0,1,.9-2.3,3.79,3.79,0,0,1,2.39-1V10.74H351v1.8a3.47,3.47,0,0,1,2.3,1.23,4,4,0,0,1,.83,2.64h-2.4a2.29,2.29,0,0,0-.41-1.49,1.36,1.36,0,0,0-1.1-.49,1.4,1.4,0,0,0-1.06.39,1.47,1.47,0,0,0-.37,1.07,1.4,1.4,0,0,0,.37,1,4,4,0,0,0,1.36.78,15,15,0,0,1,1.63.75,4.68,4.68,0,0,1,1.08.8,3.08,3.08,0,0,1,.67,1,3.48,3.48,0,0,1,.23,1.33,3.1,3.1,0,0,1-.88,2.29,3.86,3.86,0,0,1-2.43,1v1.65h-1.32V24.9a4,4,0,0,1-2.64-1.21A3.9,3.9,0,0,1,345.9,21h2.4a2.21,2.21,0,0,0,.47,1.52,1.71,1.71,0,0,0,1.35.53,1.65,1.65,0,0,0,1.16-.39A1.34,1.34,0,0,0,351.7,21.58Z"/><line class="cls-2" x1="7.48" y1="20.17" x2="302.37" y2="20.17"/><line class="cls-2" x1="397.86" y1="20.17" x2="692.75" y2="20.17"/></svg>