<?xml version="1.0" encoding="utf-8"?>
<!-- Generator: Adobe Illustrator 19.2.1, SVG Export Plug-In . SVG Version: 6.00 Build 0)  -->
<svg version="1.1" id="Layer_1" xmlns="http://www.w3.org/2000/svg" xmlns:xlink="http://www.w3.org/1999/xlink" x="0px" y="0px"
	 viewBox="0 0 40 40" style="enable-background:new 0 0 40 40;" xml:space="preserve">
<style type="text/css">
	.st0{fill:#00A079;}
</style>
<title>green-mark-01</title>
<path class="st0" d="M35.8,10.4L35.8,10.4L35.8,10.4c-2.7-4.7-7.6-7.7-13-8c-0.4,0-0.8,0.3-0.8,0.8c0,0,0,0,0,0
	c0,0.3,0.2,0.6,0.5,0.8c3,1.1,5.7,3,7.7,5.5c-1.5,1.3-1.6,3.6-0.3,5.1c1,1.1,2.4,1.5,3.8,1c0.5,1.5,0.9,3,1.1,4.5
	c0.2,1.7,0.2,3.4-0.2,5c-0.1,0.3,0.1,0.7,0.4,0.9l0,0c0.4,0.2,0.9,0.1,1.1-0.3c0,0,0,0,0,0C38.6,20.8,38.5,15.1,35.8,10.4z"/>
<path class="st0" d="M6.4,15.8c1.9,0.7,3.9-0.3,4.6-2.1c0.5-1.4,0.1-3-1.1-4c1-1.2,2.1-2.2,3.3-3.1c1.3-1,2.8-1.7,4.3-2.3
	C17.8,4.1,18,3.8,18,3.5V3.4c0-0.4-0.3-0.8-0.7-0.8c0,0,0,0,0,0c-2.5,0.1-4.9,0.9-7.1,2.1c-7.3,4.3-10,13.6-6.1,21.1
	c0.2,0.4,0.7,0.5,1,0.3c0.3-0.2,0.4-0.5,0.4-0.8C4.9,22.2,5.2,18.9,6.4,15.8z"/>
<path class="st0" d="M33.1,29.5c-0.3-0.2-0.7-0.1-0.9,0.1c-2.5,2.1-5.5,3.4-8.7,3.9c-0.4-2-2.3-3.2-4.3-2.8
	c-1.4,0.3-2.5,1.4-2.8,2.8c-1.5-0.2-3-0.7-4.5-1.3c-1.5-0.6-2.9-1.5-4.2-2.6c-0.3-0.2-0.6-0.3-0.9-0.1l0,0c-0.4,0.2-0.5,0.7-0.3,1.1
	c0,0,0,0,0,0c2.9,4.5,7.9,7.2,13.3,7.3h0.2c5.4,0,10.4-2.8,13.3-7.3C33.6,30.2,33.5,29.7,33.1,29.5C33.1,29.5,33.1,29.5,33.1,29.5z"
	/>
</svg>
