<svg id="Layer_1" data-name="Layer 1" xmlns="http://www.w3.org/2000/svg" viewBox="0 0 350 350"><defs><style>.cls-1{fill:#f7f9fe;}.cls-2,.cls-7{fill:#3bb59a;}.cls-2{opacity:0.2;}.cls-3,.cls-5,.cls-6,.cls-8,.cls-9{fill:none;}.cls-3,.cls-4{stroke:#bdd2d9;}.cls-3,.cls-4,.cls-5,.cls-6,.cls-8,.cls-9{stroke-linecap:round;stroke-linejoin:round;stroke-width:2px;}.cls-4{fill:#fff;}.cls-5,.cls-6,.cls-8,.cls-9{stroke:#3bb59a;}.cls-6{stroke-dasharray:4.08 4.08;}.cls-8{stroke-dasharray:4.19 4.19;}.cls-9{stroke-dasharray:3.85 3.85;}</style></defs><title>illustration</title><rect class="cls-1" x="101.7" y="161.62" width="69.61" height="69.61" rx="3" ry="3"/><rect class="cls-1" x="19.25" y="212.45" width="69.61" height="69.61" rx="3" ry="3"/><rect class="cls-1" x="102.06" y="247.26" width="69.61" height="69.61" rx="3" ry="3"/><rect class="cls-1" x="192.5" y="38.25" width="133.78" height="173.99" rx="3" ry="3"/><polygon id="_Path_" data-name="&lt;Path&gt;" class="cls-2" points="231.63 154.55 236.26 169 251.22 169 239.11 177.74 243.74 192.09 231.63 183.12 219.53 192.02 224.15 177.75 212.05 169 227.01 169 231.63 154.55"/><rect class="cls-2" x="216.41" y="109.99" width="30.51" height="25.06" rx="3" ry="3"/><rect id="_Path_2" data-name="&lt;Path&gt;" class="cls-2" x="216" y="66" width="7" height="23"/><rect id="_Path_3" data-name="&lt;Path&gt;" class="cls-2" x="228" y="57" width="7" height="32"/><rect id="_Path_4" data-name="&lt;Path&gt;" class="cls-2" x="240" y="75" width="7" height="14"/><rect class="cls-3" x="23.61" y="208.1" width="69.61" height="69.61" rx="3" ry="3"/><path class="cls-4" d="M71.49,253.81q10,3.54,10,6V265H35.32v-5.21q0-2.46,10-6,4.62-1.67,6.29-3.39a6.42,6.42,0,0,0,1.67-4.67,4,4,0,0,0-1.08-2.41,8.43,8.43,0,0,1-1.57-3.59,1.43,1.43,0,0,0-.44-0.89,1.87,1.87,0,0,0-.69-0.39,1.42,1.42,0,0,1-.69-0.84,6.2,6.2,0,0,1-.44-2.11,2.86,2.86,0,0,1,.25-1.28,1.33,1.33,0,0,1,.44-0.59l0.2-.2q-0.39-2.46-.59-4.33a8.05,8.05,0,0,1,2-5.51q2.21-2.85,7.72-2.85t7.77,2.85a7.54,7.54,0,0,1,2,5.51l-0.59,4.33q0.89,0.39.89,2.06a6.24,6.24,0,0,1-.44,2.11,1.43,1.43,0,0,1-.69.84,1.85,1.85,0,0,0-.69.39,1.42,1.42,0,0,0-.44.89,7.17,7.17,0,0,1-1.52,3.64,3.72,3.72,0,0,0-1.13,2.36,6.31,6.31,0,0,0,1.72,4.67A17.9,17.9,0,0,0,71.49,253.81Z"/><rect class="cls-3" x="106.42" y="242.9" width="69.61" height="69.61" rx="3" ry="3"/><path class="cls-4" d="M154.3,288.62q10,3.54,10,6v5.21h-46.2v-5.21q0-2.46,10-6,4.62-1.67,6.29-3.39a6.42,6.42,0,0,0,1.67-4.67,4,4,0,0,0-1.08-2.41,8.43,8.43,0,0,1-1.57-3.59,1.43,1.43,0,0,0-.44-0.89,1.87,1.87,0,0,0-.69-0.39,1.42,1.42,0,0,1-.69-0.84,6.2,6.2,0,0,1-.44-2.11,2.86,2.86,0,0,1,.25-1.28,1.33,1.33,0,0,1,.44-0.59l0.2-.2q-0.39-2.46-.59-4.33a8.05,8.05,0,0,1,2-5.51q2.21-2.85,7.72-2.85t7.77,2.85a7.54,7.54,0,0,1,2,5.51l-0.59,4.33q0.89,0.39.89,2.06a6.24,6.24,0,0,1-.44,2.11,1.43,1.43,0,0,1-.69.84,1.85,1.85,0,0,0-.69.39,1.42,1.42,0,0,0-.44.89,7.17,7.17,0,0,1-1.52,3.64,3.72,3.72,0,0,0-1.13,2.36,6.31,6.31,0,0,0,1.72,4.67A17.9,17.9,0,0,0,154.3,288.62Z"/><rect class="cls-3" x="106.42" y="157.93" width="69.61" height="69.61" rx="3" ry="3"/><path class="cls-4" d="M154.3,203.65q10,3.54,10,6v5.21h-46.2v-5.21q0-2.46,10-6,4.62-1.67,6.29-3.39a6.42,6.42,0,0,0,1.67-4.67,4,4,0,0,0-1.08-2.41,8.43,8.43,0,0,1-1.57-3.59,1.43,1.43,0,0,0-.44-0.89,1.87,1.87,0,0,0-.69-0.39,1.42,1.42,0,0,1-.69-0.84,6.2,6.2,0,0,1-.44-2.11,2.86,2.86,0,0,1,.25-1.28,1.33,1.33,0,0,1,.44-0.59l0.2-.2q-0.39-2.46-.59-4.33a8.05,8.05,0,0,1,2-5.51q2.21-2.85,7.72-2.85t7.77,2.85a7.54,7.54,0,0,1,2,5.51l-0.59,4.33q0.89,0.39.89,2.06a6.24,6.24,0,0,1-.44,2.11,1.43,1.43,0,0,1-.69.84,1.85,1.85,0,0,0-.69.39,1.42,1.42,0,0,0-.44.89,7.17,7.17,0,0,1-1.52,3.64,3.72,3.72,0,0,0-1.13,2.36,6.31,6.31,0,0,0,1.72,4.67A17.9,17.9,0,0,0,154.3,203.65Z"/><rect class="cls-3" x="196.86" y="34.11" width="133.78" height="173.99" rx="3" ry="3"/><rect id="_Path_5" data-name="&lt;Path&gt;" class="cls-3" x="219" y="64" width="6" height="23"/><rect id="_Path_6" data-name="&lt;Path&gt;" class="cls-3" x="231" y="54" width="6" height="33"/><rect id="_Path_7" data-name="&lt;Path&gt;" class="cls-3" x="243" y="73" width="6" height="14"/><polygon id="_Path_8" data-name="&lt;Path&gt;" class="cls-3" points="233.81 152.55 238.44 167 253.4 167 241.29 175.65 245.91 189.96 233.81 180.96 221.71 189.86 226.33 175.67 214.23 167 229.19 167 233.81 152.55"/><path id="_Path_9" data-name="&lt;Path&gt;" class="cls-3" d="M219,128.51c0,2.11,1.3,4.49,3.4,4.49h22.88c2.11,0,3.72-2.38,3.72-4.49V118H219v10.51Z"/><path id="_Path_10" data-name="&lt;Path&gt;" class="cls-3" d="M245.28,108H222.4c-2.11,0-3.4,1-3.4,3.08V113h30v-1.92C249,109,247.39,108,245.28,108Z"/><polygon id="_Path_11" data-name="&lt;Path&gt;" class="cls-3" points="235.75 126.6 224.31 126.6 222.4 120.88 233.84 120.88 235.75 126.6"/><path class="cls-5" d="M54.06,196.42q0-1,0-2"/><path class="cls-6" d="M54.19,190.35C56.67,130.74,95.52,82.07,146,72.48"/><path class="cls-5" d="M148,72.12l2-.31"/><polygon class="cls-7" points="147.96 82.16 164.33 70.76 146.28 62.28 147.96 82.16"/><path class="cls-5" d="M141.23,151.75q0-1,0-2"/><path class="cls-8" d="M141.59,145.57c2-17,12.3-31.21,26.38-37.84"/><path class="cls-5" d="M169.89,106.89q0.92-.38,1.86-0.72"/><polygon class="cls-7" points="170.97 116.94 185.9 103.72 166.99 97.39 170.97 116.94"/><path class="cls-5" d="M192.63,290.1q1,0.09,2,.15"/><path class="cls-9" d="M198.48,290.35c28.2-.07,53-19,62.54-46.17"/><path class="cls-5" d="M261.63,242.35q0.3-1,.58-1.91"/><polygon class="cls-7" points="271.18 245.24 264.86 226.33 251.64 241.25 271.18 245.24"/><line class="cls-3" x1="262.68" y1="62.04" x2="313.93" y2="62.04"/><line class="cls-3" x1="262.68" y1="70.76" x2="313.93" y2="70.76"/><line class="cls-3" x1="262.68" y1="80.02" x2="289.52" y2="80.02"/><line class="cls-3" x1="262.68" y1="108.63" x2="313.93" y2="108.63"/><line class="cls-3" x1="262.68" y1="117.34" x2="313.93" y2="117.34"/><line class="cls-3" x1="262.68" y1="126.6" x2="289.52" y2="126.6"/><line class="cls-3" x1="262.68" y1="157.93" x2="313.93" y2="157.93"/><line class="cls-3" x1="262.68" y1="166.65" x2="313.93" y2="166.65"/><line class="cls-3" x1="262.68" y1="175.91" x2="289.52" y2="175.91"/></svg>