<svg id="Layer_1" data-name="Layer 1" xmlns="http://www.w3.org/2000/svg" viewBox="0 0 350 350"><defs><style>.cls-1{fill:#f7f9fe;}.cls-2,.cls-4,.cls-6{fill:#fff;}.cls-3{fill:none;}.cls-3,.cls-4{stroke:#bdd2d9;stroke-linecap:round;stroke-linejoin:round;stroke-width:2px;}.cls-5{fill:#3bb59a;opacity:0.2;}.cls-5,.cls-6{fill-rule:evenodd;}.cls-7{font-size:32.72px;fill:#bdd2d9;font-family:fontello;}</style></defs><title>illustration</title><path class="cls-1" d="M37.71,63H312.64a5,5,0,0,1,5,5V251.62a0,0,0,0,1,0,0H32.71a0,0,0,0,1,0,0V68A5,5,0,0,1,37.71,63Z"/><rect class="cls-2" x="48.19" y="77.2" width="253.97" height="160.09" rx="2" ry="2"/><path class="cls-3" d="M37.71,58H312.64a5,5,0,0,1,5,5V246.59a0,0,0,0,1,0,0H32.71a0,0,0,0,1,0,0V63A5,5,0,0,1,37.71,58Z"/><path class="cls-4" d="M126.52,274.38h97.3a0,0,0,0,1,0,0v13.5a5,5,0,0,1-5,5h-87.3a5,5,0,0,1-5-5v-13.5A0,0,0,0,1,126.52,274.38Z"/><path class="cls-4" d="M135.93,246.69h78.49a0,0,0,0,1,0,0v26.69a1,1,0,0,1-1,1H136.93a1,1,0,0,1-1-1V246.69A0,0,0,0,1,135.93,246.69Z"/><rect class="cls-3" x="48.19" y="72.17" width="253.97" height="160.09" rx="2" ry="2"/><circle class="cls-4" cx="175.17" cy="65.47" r="1.26"/><polygon class="cls-5" points="175.17 92.27 222.06 108.22 213.72 184.61 175.17 211.68 136.63 184.61 128.28 108.22 175.17 92.27 175.17 92.27"/><path class="cls-3" d="M175.91,90.08L222.8,106l1.76,0.6-0.2,1.83L216,184.85l-0.11,1-0.85.6L176.5,213.57l-1.33.94-1.33-.94L135.3,186.5l-0.86-.6-0.11-1L126,108.46l-0.2-1.83,1.76-.6,46.89-15.95h1.48Zm43.65,19.73L175.17,94.72l-44.39,15.09,8,73.51,36.36,25.54,36.36-25.54,8-73.51h0Z"/><path class="cls-6" d="M175.17,119a26.44,26.44,0,1,1-26.44,26.44A26.44,26.44,0,0,1,175.17,119h0Z"/><text class="cls-7" transform="translate(164.67 155.91)">юбн</text></svg>