<svg id="Layer_1" data-name="Layer 1" xmlns="http://www.w3.org/2000/svg" viewBox="0 0 350 350"><defs><style>.cls-1{fill:#f7f9fe;}.cls-2{fill:#ecf1f2;}.cls-3{fill:#fff;}.cls-4,.cls-8{fill:#3bb59a;}.cls-4{opacity:0.2;}.cls-5,.cls-6,.cls-7,.cls-9{fill:none;stroke-linecap:round;stroke-linejoin:round;stroke-width:2px;}.cls-5{stroke:#bdd2d9;}.cls-6,.cls-7,.cls-9{stroke:#3bb59a;}.cls-7{stroke-dasharray:4.04 4.04;}.cls-9{stroke-dasharray:4 4;}.cls-10{font-size:13.16px;fill:#bdd2d9;font-family:Montserrat;}</style></defs><title>illustration</title><rect class="cls-1" x="185" y="234" width="120.5" height="75.79" rx="4" ry="4"/><rect class="cls-1" x="31.35" y="38.11" width="133.78" height="173.99" rx="3" ry="3"/><circle class="cls-2" cx="98.23" cy="199.5" r="7"/><rect class="cls-3" x="54.48" y="66.04" width="87.5" height="13.52"/><rect class="cls-3" x="54.73" y="88.33" width="13.19" height="13.52"/><rect class="cls-3" x="79.75" y="88.33" width="13.19" height="13.52"/><rect class="cls-3" x="104.78" y="88.33" width="13.19" height="13.52"/><rect class="cls-3" x="129.15" y="88.33" width="13.19" height="13.52"/><rect class="cls-4" x="54.78" y="158.77" width="87.5" height="13.52"/><rect class="cls-5" x="35.35" y="34.11" width="133.78" height="173.99" rx="3" ry="3"/><rect class="cls-5" x="45.21" y="45.01" width="114.04" height="136.09" rx="3" ry="3"/><circle class="cls-5" cx="102.23" cy="195.5" r="7"/><rect class="cls-5" x="58.48" y="62.04" width="87.5" height="13.52"/><rect class="cls-5" x="58.73" y="84.33" width="13.19" height="13.52"/><line class="cls-5" x1="75.11" y1="91.09" x2="79.91" y2="91.09"/><rect class="cls-5" x="83.75" y="84.33" width="13.19" height="13.52"/><line class="cls-5" x1="100.13" y1="91.09" x2="104.93" y2="91.09"/><rect class="cls-5" x="108.78" y="84.33" width="13.19" height="13.52"/><line class="cls-5" x1="125.15" y1="91.09" x2="129.96" y2="91.09"/><rect class="cls-5" x="133.15" y="84.33" width="13.19" height="13.52"/><rect class="cls-5" x="58.78" y="154.77" width="87.5" height="13.52"/><path class="cls-6" d="M170.63,264.1l-2-.21"/><path class="cls-7" d="M164.65,263.31c-17.41-3-31.59-12.08-38.39-23.58"/><path class="cls-6" d="M125.28,238q-0.46-.89-0.86-1.8"/><polygon class="cls-8" points="135.35 236.82 122 222 115.84 240.97 135.35 236.82"/><path class="cls-6" d="M273.14,216.09q0-1,0-2"/><path class="cls-9" d="M273.11,210.09c-1.22-56.25-29.9-102.82-68.35-114.51"/><path class="cls-6" d="M202.84,95q-1-.26-1.94-0.49"/><polygon class="cls-8" points="205.18 85.35 186.66 92.76 202.34 105.09 205.18 85.35"/><rect class="cls-5" x="189" y="230" width="120.5" height="75.79" rx="4" ry="4"/><line class="cls-5" x1="198.5" y1="295" x2="246.5" y2="295"/><line class="cls-5" x1="254" y1="295" x2="286.5" y2="295"/><line class="cls-5" x1="198.5" y1="250.54" x2="217.5" y2="250.54"/><line class="cls-5" x1="225.5" y1="250.54" x2="244.5" y2="250.54"/><line class="cls-5" x1="254.5" y1="250.54" x2="273.5" y2="250.54"/><line class="cls-5" x1="281.5" y1="250.54" x2="300.5" y2="250.54"/><line class="cls-5" x1="225.5" y1="277.5" x2="235" y2="277.5"/><line class="cls-5" x1="243" y1="277.5" x2="252.5" y2="277.5"/><path class="cls-5" d="M283.5,261.5h26a0,0,0,0,1,0,0v20a0,0,0,0,1,0,0h-26a2,2,0,0,1-2-2v-16A2,2,0,0,1,283.5,261.5Z"/><text class="cls-10" transform="translate(290.88 276.64)">$</text></svg>