<svg id="Layer_1" data-name="Layer 1" xmlns="http://www.w3.org/2000/svg" viewBox="0 0 350 350"><defs><style>.cls-1{fill:#f7f9fe;}.cls-2,.cls-6{fill:#3bb59a;}.cls-2{opacity:0.2;}.cls-3,.cls-4,.cls-5,.cls-7,.cls-8{fill:none;}.cls-3,.cls-9{stroke:#bdd2d9;}.cls-3,.cls-4,.cls-5,.cls-7,.cls-8,.cls-9{stroke-linecap:round;stroke-linejoin:round;stroke-width:2px;}.cls-4,.cls-5,.cls-7,.cls-8{stroke:#3bb59a;}.cls-5{stroke-dasharray:3.89 3.89;}.cls-7{stroke-dasharray:3.8 3.8;}.cls-8{stroke-dasharray:4.06 4.06;}.cls-9{fill:#fff;}</style></defs><title>illustration</title><rect class="cls-1" x="17.5" y="29.25" width="133.78" height="173.99" rx="3" ry="3"/><polygon id="_Path_" data-name="&lt;Path&gt;" class="cls-2" points="220.63 252.55 225.26 267 240.22 267 228.11 275.74 232.74 290.1 220.63 281.12 208.53 290.02 213.15 275.75 201.05 267 216.01 267 220.63 252.55"/><rect class="cls-2" x="205.41" y="207.99" width="30.51" height="25.06" rx="3" ry="3"/><rect id="_Path_2" data-name="&lt;Path&gt;" class="cls-2" x="205" y="164" width="7" height="23"/><rect id="_Path_3" data-name="&lt;Path&gt;" class="cls-2" x="217" y="155" width="7" height="32"/><rect id="_Path_4" data-name="&lt;Path&gt;" class="cls-2" x="229" y="173" width="7" height="14"/><rect class="cls-3" x="21.86" y="25.11" width="133.78" height="173.99" rx="3" ry="3"/><rect id="_Path_5" data-name="&lt;Path&gt;" class="cls-3" x="208" y="162" width="6" height="23"/><rect id="_Path_6" data-name="&lt;Path&gt;" class="cls-3" x="220" y="152" width="6" height="33"/><rect id="_Path_7" data-name="&lt;Path&gt;" class="cls-3" x="232" y="171" width="6" height="14"/><polygon id="_Path_8" data-name="&lt;Path&gt;" class="cls-3" points="222.81 250.55 227.44 265 242.4 265 230.29 273.65 234.91 287.96 222.81 278.96 210.71 287.86 215.33 273.67 203.23 265 218.19 265 222.81 250.55"/><path id="_Path_9" data-name="&lt;Path&gt;" class="cls-3" d="M208,226.51c0,2.11,1.3,4.49,3.4,4.49h22.88c2.11,0,3.72-2.38,3.72-4.49V216H208v10.51Z"/><path id="_Path_10" data-name="&lt;Path&gt;" class="cls-3" d="M234.28,206H211.4c-2.11,0-3.4,1-3.4,3.08V211h30v-1.92C238,207,236.39,206,234.28,206Z"/><polygon id="_Path_11" data-name="&lt;Path&gt;" class="cls-3" points="224.75 224.6 213.31 224.6 211.4 218.88 222.84 218.88 224.75 224.6"/><line class="cls-3" x1="251.68" y1="160.04" x2="302.93" y2="160.04"/><line class="cls-3" x1="251.68" y1="168.76" x2="302.93" y2="168.76"/><line class="cls-3" x1="251.68" y1="178.02" x2="278.52" y2="178.02"/><line class="cls-3" x1="251.68" y1="206.63" x2="302.93" y2="206.63"/><line class="cls-3" x1="251.68" y1="215.34" x2="302.93" y2="215.34"/><line class="cls-3" x1="251.68" y1="224.6" x2="278.52" y2="224.6"/><line class="cls-3" x1="251.68" y1="255.93" x2="302.93" y2="255.93"/><line class="cls-3" x1="251.68" y1="264.65" x2="302.93" y2="264.65"/><line class="cls-3" x1="251.68" y1="273.91" x2="278.52" y2="273.91"/><path class="cls-4" d="M252.06,152.42q0-1,0-2"/><path class="cls-5" d="M251.9,146.53c-2.28-42.37-29-77.12-64.26-86.13"/><path class="cls-4" d="M185.76,60l-2-.42"/><polygon class="cls-6" points="187.81 50.17 169.52 58.13 185.56 69.99 187.81 50.17"/><path class="cls-4" d="M197.91,227l-2-.31"/><path class="cls-7" d="M192.2,225.93c-10.66-2.3-19.77-6.39-26-11.3"/><path class="cls-4" d="M164.78,213.41q-0.76-.67-1.45-1.37"/><polygon class="cls-6" points="174.34 209.88 157.74 198.82 156.46 218.72 174.34 209.88"/><path class="cls-4" d="M187.74,276.22l-2,0"/><path class="cls-8" d="M181.68,276.11c-63.16-1.78-115.61-20.91-132.21-46.24"/><path class="cls-4" d="M48.4,228.14q-0.51-.87-1-1.75"/><polygon class="cls-6" points="58.32 226.31 43.98 212.46 39.15 231.8 58.32 226.31"/><rect class="cls-9" x="38.2" y="45.36" width="34.59" height="34.59" rx="3" ry="3"/><rect class="cls-9" x="38.2" y="94.81" width="34.59" height="34.59" rx="3" ry="3"/><rect class="cls-9" x="38.2" y="144.32" width="34.59" height="34.59" rx="3" ry="3"/></svg>