<svg id="Layer_1" data-name="Layer 1" xmlns="http://www.w3.org/2000/svg" viewBox="0 0 350 350"><defs><style>.cls-1{fill:#f7f9fe;}.cls-10,.cls-2,.cls-5,.cls-7{fill:#fff;}.cls-13,.cls-3,.cls-8{fill:#3bb59a;}.cls-3,.cls-8{opacity:0.2;}.cls-11,.cls-12,.cls-4,.cls-9{fill:none;}.cls-4,.cls-5,.cls-7,.cls-9{stroke:#bdd2d9;}.cls-11,.cls-12,.cls-4,.cls-5,.cls-7,.cls-9{stroke-linecap:round;stroke-linejoin:round;stroke-width:2px;}.cls-6{font-size:24px;fill:#bdd2d9;font-family:Montserrat;}.cls-10,.cls-7,.cls-8,.cls-9{fill-rule:evenodd;}.cls-11,.cls-12{stroke:#3bb59a;}.cls-12{stroke-dasharray:3.86 3.86;}</style></defs><title>illustration</title><path class="cls-1" d="M62.93,49.06H279.57a5,5,0,0,1,5,5v145a0,0,0,0,1,0,0H57.93a0,0,0,0,1,0,0v-145A5,5,0,0,1,62.93,49.06Z"/><rect class="cls-2" x="70.25" y="60.33" width="202" height="127.33" rx="2" ry="2"/><path class="cls-3" d="M261.25,94.17A19.17,19.17,0,0,0,242.08,75H201.17a19,19,0,1,0,0,38h28.51A17.46,17.46,0,0,0,247,130.35c-2.55-4.36-4.24-10.46-4.56-17.2a18.94,18.94,0,0,0,13.24-5.43A19.14,19.14,0,0,0,261.25,94.17Z"/><path class="cls-3" d="M91,140.17A19.17,19.17,0,0,1,110.17,121h40.91a19,19,0,1,1,0,38H122.57a17.46,17.46,0,0,1-17.28,17.35c2.55-4.36,4.24-10.46,4.56-17.2a18.94,18.94,0,0,1-13.24-5.43A19.14,19.14,0,0,1,91,140.17Z"/><path class="cls-1" d="M57.93,199.06H284.57a0,0,0,0,1,0,0v9.71a5,5,0,0,1-5,5H62.93a5,5,0,0,1-5-5v-9.71A0,0,0,0,1,57.93,199.06Z"/><path class="cls-4" d="M66.93,45.06H283.57a5,5,0,0,1,5,5v145a0,0,0,0,1,0,0H61.93a0,0,0,0,1,0,0v-145A5,5,0,0,1,66.93,45.06Z"/><path class="cls-5" d="M61.93,195.06H288.57a0,0,0,0,1,0,0v9.71a5,5,0,0,1-5,5H66.93a5,5,0,0,1-5-5v-9.71A0,0,0,0,1,61.93,195.06Z"/><path class="cls-5" d="M144,195.14h62.43a0,0,0,0,1,0,0v6.36a1,1,0,0,1-1,1H145a1,1,0,0,1-1-1v-6.36A0,0,0,0,1,144,195.14Z"/><rect class="cls-4" x="74.25" y="56.33" width="202" height="127.33" rx="2" ry="2"/><circle class="cls-5" cx="175.25" cy="51" r="1"/><path class="cls-4" d="M265.25,90.17A19.17,19.17,0,0,0,246.08,71H205.17a19,19,0,1,0,0,38h28.51A17.46,17.46,0,0,0,251,126.35c-2.55-4.36-4.24-10.46-4.56-17.2a18.94,18.94,0,0,0,13.24-5.43A19.14,19.14,0,0,0,265.25,90.17Z"/><path class="cls-4" d="M95,136.17A19.17,19.17,0,0,1,114.17,117h40.91a19,19,0,1,1,0,38H126.57a17.46,17.46,0,0,1-17.28,17.35c2.55-4.36,4.24-10.46,4.56-17.2a18.94,18.94,0,0,1-13.24-5.43A19.14,19.14,0,0,1,95,136.17Z"/><text class="cls-6" transform="translate(128.02 143.85)">$</text><text class="cls-6" transform="translate(218.36 98.18)">$</text><polygon class="cls-7" points="190.72 248.71 320.77 248.71 320.77 308.06 190.74 308.14 190.72 248.71 190.72 248.71"/><polygon class="cls-7" points="186.72 244.71 316.77 244.71 316.77 304.06 186.74 304.14 186.72 244.71 186.72 244.71"/><polygon class="cls-8" points="183.8 241.38 313.85 241.38 313.85 300.72 183.83 300.81 183.8 241.38 183.8 241.38"/><polygon class="cls-9" points="182.72 240.71 312.77 240.71 312.77 300.06 182.74 300.14 182.72 240.71 182.72 240.71"/><path class="cls-10" d="M247.46,252.17a18.25,18.25,0,1,1-18.25,18.25,18.25,18.25,0,0,1,18.25-18.25h0Zm-1.32,25.57v-6.51a10.58,10.58,0,0,1-5.28-2.63,6,6,0,0,1-1.69-4.29,5.57,5.57,0,0,1,1.91-4.28,8.28,8.28,0,0,1,5.06-2v-1.53h2.69V258a8.8,8.8,0,0,1,4.7,1.69,6.24,6.24,0,0,1,2.23,3.73l-4.69.51a3.33,3.33,0,0,0-2.23-2.49v6.08c3,0.67,5,1.55,6.07,2.61a5.57,5.57,0,0,1,1.61,4.13,6.27,6.27,0,0,1-2,4.74,9.81,9.81,0,0,1-5.65,2.4v2.9h-2.69v-2.87a9.34,9.34,0,0,1-5.17-2,7.7,7.7,0,0,1-2.55-4.71l4.81-.48a4.78,4.78,0,0,0,1.11,2.14,5,5,0,0,0,1.8,1.3h0Zm0-16.33a3.49,3.49,0,0,0-1.72,1.07,2.49,2.49,0,0,0-.63,1.65,2.39,2.39,0,0,0,.57,1.53,4,4,0,0,0,1.77,1.14v-5.39h0ZM248.83,278a4.2,4.2,0,0,0,2.26-1.12,2.73,2.73,0,0,0,.88-2,2.46,2.46,0,0,0-.74-1.79,4.92,4.92,0,0,0-2.4-1.16V278h0Z"/><polygon class="cls-10" points="191.81 268.85 221.09 268.85 221.09 272 191.81 272 191.81 268.85 191.81 268.85"/><polygon class="cls-10" points="274.39 268.85 303.68 268.85 303.68 272 274.39 272 274.39 268.85 274.39 268.85"/><polygon class="cls-10" points="307.87 252.56 307.87 243.63 309.61 243.63 309.61 252.56 307.87 252.56 307.87 252.56"/><polygon class="cls-10" points="187.17 252.56 187.17 243.63 185.43 243.63 185.43 252.56 187.17 252.56 187.17 252.56"/><polygon class="cls-10" points="300.68 297.54 309.61 297.54 309.61 295.8 300.68 295.8 300.68 297.54 300.68 297.54"/><polygon class="cls-10" points="307.87 288.61 307.87 297.54 309.61 297.54 309.61 288.61 307.87 288.61 307.87 288.61"/><polygon class="cls-10" points="194.36 297.54 185.43 297.54 185.43 295.8 194.36 295.8 194.36 297.54 194.36 297.54"/><polygon class="cls-10" points="187.17 288.61 187.17 297.54 185.43 297.54 185.43 288.61 187.17 288.61 187.17 288.61"/><path class="cls-11" d="M77.39,217.71q0.07,1,.2,2"/><path class="cls-12" d="M78.25,223.5c5.92,26.41,38.32,45.72,78.72,47.85"/><path class="cls-11" d="M158.9,271.44l2,0.06"/><polygon class="cls-13" points="158.12 281.35 175.25 271.14 157.84 261.41 158.12 281.35"/></svg>