<svg id="Layer_1" data-name="Layer 1" xmlns="http://www.w3.org/2000/svg" viewBox="0 0 198.43 30.15"><defs><style>.cls-1,.cls-2{fill:#fff;}.cls-2{stroke:#fff;stroke-miterlimit:10;}</style></defs><title>logo-light</title><path class="cls-1" d="M3.08,23.17a0.68,0.68,0,0,0,.32-0.73,14.85,14.85,0,0,1,.8-8,3.07,3.07,0,0,0,3-5.19A16.51,16.51,0,0,1,10,6.53a12.89,12.89,0,0,1,3.6-2A0.59,0.59,0,0,0,14,3.91h0a0.59,0.59,0,0,0-.58-0.67,13.22,13.22,0,0,0-6,1.8A13.39,13.39,0,0,0,2.52,9.88L2.47,10l0,0.05a13.53,13.53,0,0,0-.3,12.88A0.67,0.67,0,0,0,3.08,23.17Z" transform="translate(-0.67 -3.24)"/><path class="cls-1" d="M30,10.14l0,0,0,0a13.53,13.53,0,0,0-11-6.72,0.67,0.67,0,0,0-.69.67,0.68,0.68,0,0,0,.47.64,14.85,14.85,0,0,1,6.54,4.7,3.06,3.06,0,0,0,3,5.18,16.51,16.51,0,0,1,.94,3.81,13.38,13.38,0,0,1-.14,4.2,0.67,0.67,0,0,0,.32.72h0A0.67,0.67,0,0,0,30.3,23,13.54,13.54,0,0,0,30,10.14Z" transform="translate(-0.67 -3.24)"/><path class="cls-1" d="M27.73,26.27a0.68,0.68,0,0,0-.79.09,14.85,14.85,0,0,1-7.34,3.31,3.07,3.07,0,0,0-6,0,16.51,16.51,0,0,1-3.77-1.09,13.38,13.38,0,0,1-3.56-2.22,0.67,0.67,0,0,0-.79-0.09h0a0.67,0.67,0,0,0-.24.93,13.54,13.54,0,0,0,11.24,6.18h0.18A13.53,13.53,0,0,0,28,27.2,0.67,0.67,0,0,0,27.73,26.27Z" transform="translate(-0.67 -3.24)"/><path class="cls-2" d="M61.59,28.23a1.21,1.21,0,0,1-.89.36,1.25,1.25,0,0,1-.93-0.35,1.22,1.22,0,0,1-.35-0.9V26.51a12.42,12.42,0,0,0-.25-2.57A4.13,4.13,0,0,0,58,21.83a3.92,3.92,0,0,0-2.86-.93H49.38v6.44a1.18,1.18,0,0,1-.37.89,1.25,1.25,0,0,1-.9.36,1.23,1.23,0,0,1-1.25-1.25v-17a1.25,1.25,0,0,1,.36-0.9,1.18,1.18,0,0,1,.89-0.37h6.46q3.77,0,5.66,1.55a5,5,0,0,1,1.89,4.08,5.31,5.31,0,0,1-.93,3,5.18,5.18,0,0,1-2.71,2,3.82,3.82,0,0,1,2.73,2.48,10.88,10.88,0,0,1,.74,3.84v1.28A1.21,1.21,0,0,1,61.59,28.23Zm-3.4-10.65a3,3,0,0,0,1.4-2.66,3,3,0,0,0-1.21-2.55,7.18,7.18,0,0,0-4.12-.89H49.38v7h5A6.69,6.69,0,0,0,58.19,17.57Z" transform="translate(-0.67 -3.24)"/><path class="cls-2" d="M80.27,10.08a8.84,8.84,0,0,1,3.38,3.54,11.12,11.12,0,0,1,0,10.29,8.84,8.84,0,0,1-3.38,3.54,10.82,10.82,0,0,1-10.19,0,8.73,8.73,0,0,1-3.38-3.52,11.28,11.28,0,0,1,0-10.32,8.73,8.73,0,0,1,3.38-3.52A10.82,10.82,0,0,1,80.27,10.08ZM79,25.37a6.55,6.55,0,0,0,2.5-2.72,8.57,8.57,0,0,0,.86-3.88,8.57,8.57,0,0,0-.86-3.88A6.56,6.56,0,0,0,79,12.16a8,8,0,0,0-7.73,0,6.58,6.58,0,0,0-2.48,2.72A8.57,8.57,0,0,0,68,18.77a8.57,8.57,0,0,0,.86,3.88,6.58,6.58,0,0,0,2.48,2.72A8,8,0,0,0,79,25.37Z" transform="translate(-0.67 -3.24)"/><path class="cls-2" d="M105.63,9.32a1.23,1.23,0,0,1,.37.9V26.78a1.72,1.72,0,0,1-.54,1.28,1.78,1.78,0,0,1-1.29.53h-0.33a1.73,1.73,0,0,1-.83-0.21,1.91,1.91,0,0,1-.64-0.54L91.63,12.33v15a1.18,1.18,0,0,1-.37.89,1.25,1.25,0,0,1-.9.36,1.23,1.23,0,0,1-1.25-1.25V10.78a1.79,1.79,0,0,1,.53-1.29,1.72,1.72,0,0,1,1.28-.54h0.36a1.88,1.88,0,0,1,1.53.83L103.48,25.2v-15a1.25,1.25,0,0,1,.36-0.9,1.18,1.18,0,0,1,.89-0.37A1.23,1.23,0,0,1,105.63,9.32Z" transform="translate(-0.67 -3.24)"/><path class="cls-2" d="M123.57,10.49a9,9,0,0,1,3.32,3.62,10.34,10.34,0,0,1,0,9.32A9,9,0,0,1,123.57,27a9.81,9.81,0,0,1-5.37,1.4h-5.58a1.23,1.23,0,0,1-1.25-1.25V10.36a1.25,1.25,0,0,1,.36-0.9,1.18,1.18,0,0,1,.89-0.37h5.58A9.81,9.81,0,0,1,123.57,10.49ZM121.9,25.16a6.62,6.62,0,0,0,2.66-2.58,7.55,7.55,0,0,0,.94-3.81,7.55,7.55,0,0,0-.94-3.81,6.62,6.62,0,0,0-2.66-2.58,8.28,8.28,0,0,0-4-.93h-4V26.09h4A8.28,8.28,0,0,0,121.9,25.16Z" transform="translate(-0.67 -3.24)"/><path class="cls-2" d="M147.72,27.34a1.23,1.23,0,0,1-.35.89,1.2,1.2,0,0,1-.9.36,1.27,1.27,0,0,1-.71-0.21,1.33,1.33,0,0,1-.49-0.57l-1.8-4.33H134l-1.8,4.33a1.33,1.33,0,0,1-.49.57,1.27,1.27,0,0,1-.71.21,1.19,1.19,0,0,1-.9-0.36,1.23,1.23,0,0,1-.35-0.89,1.52,1.52,0,0,1,.14-0.55L137,10.08a2.11,2.11,0,0,1,.62-0.82,1.53,1.53,0,0,1,1-.32h0.28a1.54,1.54,0,0,1,1,.32,2.14,2.14,0,0,1,.62.82l7.07,16.7A1.52,1.52,0,0,1,147.72,27.34Zm-9-15.17-3.75,9h7.49Z" transform="translate(-0.67 -3.24)"/><path class="cls-2" d="M153.63,17.57h8.54a1.18,1.18,0,0,1,1.19,1.19,1.11,1.11,0,0,1-.35.83,1.18,1.18,0,0,1-.85.33h-8.54v7.41a1.18,1.18,0,0,1-.37.89,1.25,1.25,0,0,1-.9.36,1.23,1.23,0,0,1-1.25-1.25v-17a1.25,1.25,0,0,1,.36-0.9,1.18,1.18,0,0,1,.89-0.37h10.79a1.18,1.18,0,0,1,1.19,1.19,1.1,1.1,0,0,1-.35.83,1.17,1.17,0,0,1-.85.33h-9.52v6.13Z" transform="translate(-0.67 -3.24)"/><path class="cls-2" d="M181.25,26.44a1.15,1.15,0,0,1,.35.85,1.1,1.1,0,0,1-.35.83,1.18,1.18,0,0,1-.85.33H169.28A1.23,1.23,0,0,1,168,27.2V10.36a1.25,1.25,0,0,1,.36-0.9,1.18,1.18,0,0,1,.89-0.37H180.4a1.18,1.18,0,0,1,1.19,1.19,1.1,1.1,0,0,1-.35.83,1.18,1.18,0,0,1-.85.33h-9.85v6.13h8.85a1.18,1.18,0,0,1,1.19,1.19,1.11,1.11,0,0,1-.35.83,1.18,1.18,0,0,1-.85.33h-8.85v6.16h9.85A1.15,1.15,0,0,1,181.25,26.44Z" transform="translate(-0.67 -3.24)"/><path class="cls-2" d="M198.22,26.3a1.23,1.23,0,0,1,.37.9,1.18,1.18,0,0,1-.37.89,1.25,1.25,0,0,1-.9.36h-9.85a1.75,1.75,0,0,1-1.75-1.75V10.22a1.25,1.25,0,0,1,.36-0.9A1.18,1.18,0,0,1,187,8.95a1.28,1.28,0,0,1,1.28,1.28v15.7h9.07A1.23,1.23,0,0,1,198.22,26.3Z" transform="translate(-0.67 -3.24)"/></svg>