<?xml version="1.0" encoding="utf-8"?>
<!-- Generator: Adobe Illustrator 19.2.1, SVG Export Plug-In . SVG Version: 6.00 Build 0)  -->
<svg version="1.1" id="Layer_1" xmlns="http://www.w3.org/2000/svg" xmlns:xlink="http://www.w3.org/1999/xlink" x="0px" y="0px"
	 viewBox="0 0 100.3 99.9" style="enable-background:new 0 0 100.3 99.9;" xml:space="preserve">
<style type="text/css">
	.st0{opacity:0.5;}
	.st1{fill:#FFFFFF;}
</style>
<title>rondadfel-light</title>
<g class="st0">
	<path class="st1" d="M8,66.8c0.8-0.5,1.3-1.5,1.1-2.4C7.4,56,8.5,46.6,11.8,37.8c5.3,1.8,11.1-1.1,12.9-6.5
		c1.3-3.8,0.1-8.1-2.9-10.8c2.8-3.4,5.9-6.4,9.4-9c3.6-2.8,7.7-5.1,12.1-6.6c0.9-0.3,1.4-1.2,1.3-2.1l0,0c0.1-1.1-0.7-2.1-1.9-2.2
		c-0.1,0-0.1,0-0.2,0c-15,0.8-28.7,9.1-36.3,22.1c-0.1,0-0.1,0.1-0.2,0.3s0,0.1-0.1,0.2C-1.6,36.4-2,52.5,4.9,66
		C5.5,67.1,6.8,67.5,8,66.8C8,66.9,8,66.8,8,66.8z"/>
	<path class="st1" d="M94.3,22.6c0,0,0-0.1-0.1-0.1l-0.1-0.1C86.6,9.2,72.8,0.8,57.6,0c-1.2,0-2.3,0.9-2.3,2.1v0.1
		c0,1,0.6,1.8,1.6,2.1C65,7.1,72.6,12.7,78.6,20c-4.2,3.8-4.5,10.2-0.7,14.4c2.7,3,6.9,4.1,10.7,2.9c1.5,4.1,2.6,8.3,3.1,12.7
		c0.6,4.7,0.4,9.4-0.5,14c-0.2,0.9,0.2,1.9,1.1,2.4l0,0c1,0.6,2.4,0.3,3-0.8c0,0,0-0.1,0.1-0.1C102.3,51.9,101.9,35.8,94.3,22.6z"/>
	<path class="st1" d="M86.8,76.2c-0.8-0.5-1.9-0.4-2.6,0.3c-6.4,5.7-15.1,9.4-24.4,11c-1.2-5.5-6.6-9-12.1-7.8
		c-3.9,0.8-7,3.9-7.8,7.8c-4.3-0.7-8.5-1.9-12.5-3.6c-4.3-1.8-8.3-4.3-11.9-7.4c-0.7-0.6-1.8-0.8-2.6-0.3l0,0
		c-1.1,0.6-1.4,1.9-0.8,3c0,0,0,0.1,0.1,0.1c8,12.7,22.1,20.4,37.2,20.6h0.4H50c15.2-0.1,29.3-7.8,37.6-20.6
		C88.2,78.3,87.9,76.9,86.8,76.2C86.8,76.3,86.8,76.3,86.8,76.2z"/>
</g>
</svg>
